<svg width="77" height="111" viewBox="0 0 77 111" fill="none" xmlns="http://www.w3.org/2000/svg">
<path d="M8.23087 103.199L0.943359 99.4339L6.40897 51.338L11.3886 49.2734L14.5464 51.338L8.23087 103.199Z" fill="#0DAEEF"/>
<path d="M14.4014 105.384L9.9043 104.356L15.5424 50.4424L11.56 48.1668L12.4703 38.7229L20.5487 34.2852L14.4014 105.384Z" fill="#0DAEEF"/>
<path d="M26.4657 109.154L21.8008 108.358L25.5555 38.2689L22.8247 35.5381V27.9148L29.8792 25.1836L26.4657 109.154Z" fill="#0DAEEF"/>
<path d="M26.3691 24.5279L29.4284 22.8378V18.1492L36.1106 15.9314V110.023H45.7712V22.8378L49.4744 24.5279V15.2699L37.3182 11.1641L26.3691 15.2699V24.5279Z" fill="#0DAEEF"/>
<path d="M55.5948 108.122L50.7747 108.907L47.2285 25.3945L54.1205 28.1943V35.3015L51.536 37.9937L55.5948 108.122Z" fill="#0DAEEF"/>
<path d="M67.1401 104.555L62.7493 105.133L56.3945 34.5391L64.9444 38.8144L65.7532 48.1728L61.4787 50.2522L67.1401 104.555Z" fill="#0DAEEF"/>
<path d="M62.7617 51.5277L68.8854 103.404L76.6267 99.8224L70.1565 52.2205L65.0728 49.9102L62.7617 51.5277Z" fill="#0DAEEF"/>
<path d="M37.5516 8.75722L28.6543 11.5446V8.07899L36.1939 5.83088L37.5516 0.773438L39.0507 5.83088L47.1059 8.07899V11.5446L37.5516 8.75722Z" fill="#0DAEEF"/>
</svg>
